<svg width="72" height="72" viewBox="0 0 72 72" xmlns="http://www.w3.org/2000/svg" xmlns:xlink="http://www.w3.org/1999/xlink"><title>70C0C927-E4C3-4141-92A1-075127B6441B</title><defs><circle id="a" cx="27.429" cy="27.429" r="27.429"/></defs><g fill="none" fill-rule="evenodd"><circle fill="#FFF7AE" cx="36" cy="36" r="36"/><g transform="translate(8.571 6)"><mask id="b" fill="#fff"><use xlink:href="#a"/></mask><path d="M27.798 75.607c-10.227 0-18.518-8.291-18.518-18.518s8.29-18.518 18.518-18.518c10.227 0 18.517 8.291 18.517 18.518s-8.29 18.518-18.517 18.518zm0-1.715c9.28 0 16.803-7.523 16.803-16.803 0-9.28-7.523-16.803-16.803-16.803-9.28 0-16.804 7.523-16.804 16.803 0 9.28 7.523 16.803 16.804 16.803z" fill="#FFD100" fill-rule="nonzero" mask="url(#b)"/></g><path d="M36.43 35.368a8.421 8.421 0 1 0 0-16.843v1.715a6.707 6.707 0 0 1 0 13.414v1.714z" fill="#FFD100" fill-rule="nonzero"/><path d="M36.366 40.106c-7.303 0-13.223-5.92-13.223-13.224 0-7.303 5.92-13.223 13.223-13.223 7.303 0 13.224 5.92 13.224 13.223 0 7.303-5.92 13.224-13.224 13.224zm0-1.715c6.356 0 11.51-5.152 11.51-11.509 0-6.356-5.154-11.509-11.51-11.509s-11.509 5.153-11.509 11.51c0 6.356 5.153 11.508 11.51 11.508z" fill="#FFD100" fill-rule="nonzero"/><path fill="#FFF6B3" d="M44.88 13.78l3.402 3.403-4.536 4.536-3.402-3.402z"/></g></svg>